<?xml version="1.0" encoding="UTF-8"?>
<svg width="10px" height="13px" viewBox="0 0 10 13" version="1.1" xmlns="http://www.w3.org/2000/svg" xmlns:xlink="http://www.w3.org/1999/xlink">
    <title>Group</title>
    <g id="Page-1" stroke="none" stroke-width="1" fill="none" fill-rule="evenodd">
        <g id="HOME-Copy-5" transform="translate(-352, -546)" fill="#000000">
            <g id="Group" transform="translate(352, 546)">
                <path d="M4.54323028,4.0003742 L5.45424565,4.00145645 C6.30621193,4.00166303 6.99683289,4.69223355 6.9971017,5.54419981 L7.00037396,10.4567695 C7.00064287,11.309072 6.30993316,12.0002177 5.45763062,12.0004866 C5.45734359,12.0004867 5.45705655,12.0004868 5.45676951,12.0004867 L4.54575435,11.9985435 C3.69378807,11.998337 3.00316711,11.3077665 3.0028983,10.4558002 L2.99962604,5.54323052 C2.99935713,4.69092799 3.69006684,3.99978227 4.54236938,3.99951335 C4.54265641,3.99951326 4.54294345,3.99951325 4.54323049,3.99951332 Z" id="Rectangle" transform="translate(5, 8) scale(-1, 1) rotate(135) translate(-5, -8)"></path>
                <path d="M4.54323028,1.0003742 L5.45424565,1.00145645 C6.30621193,1.00166303 6.99683289,1.69223355 6.9971017,2.54419981 L7.00037396,7.45676948 C7.00064287,8.30907201 6.30993316,9.00021773 5.45763062,9.00048665 C5.45734359,9.00048674 5.45705655,9.00048675 5.45676951,9.00048668 L4.54575435,8.99854355 C3.69378807,8.99833697 3.00316711,8.30776645 3.0028983,7.45580019 L2.99962604,2.54323052 C2.99935713,1.69092799 3.69006684,0.99978227 4.54236938,0.999513351 C4.54265641,0.99951326 4.54294345,0.999513249 4.54323049,0.999513319 Z" id="Rectangle-Copy-76" transform="translate(5, 5) rotate(135) translate(-5, -5)"></path>
            </g>
        </g>
    </g>
</svg>