<?xml version="1.0" encoding="UTF-8"?>
<svg width="192px" height="42px" viewBox="0 0 192 42" version="1.1" xmlns="http://www.w3.org/2000/svg" xmlns:xlink="http://www.w3.org/1999/xlink">
    <title>Group</title>
    <g id="Page-1" stroke="none" stroke-width="1" fill="none" fill-rule="evenodd">
        <g id="Group" transform="translate(-111, -393)" fill-rule="nonzero">
            <g transform="translate(111, 393)">
                <path d="M67.9691306,11.2 L59.5788625,11.2 C58.8161108,11.2 58.2000422,11.8091408 58.2000422,12.5633151 L58.2000422,14.4197441 C58.2147105,14.912858 58.6254229,15.3044485 59.1241452,15.3044485 L60.5029655,15.3044485 C60.5469704,15.3044485 60.576307,15.3189519 60.6056436,15.3624619 C60.6349802,15.405972 60.6496485,15.4639854 60.6349802,15.5074954 L57.3492808,25.2392444 C57.3199442,25.2972578 57.2612709,25.3407678 57.1879294,25.3262645 C57.1292562,25.3262645 57.070583,25.2827544 57.0559147,25.2392444 L52.1420339,12.0556977 L52.1420339,12.0411944 C52.0100192,11.7221207 51.7019849,11.490067 51.3499457,11.4755637 L48.3869489,11.4755637 C48.0349097,11.5045704 47.7268754,11.7221207 47.5801923,12.0411944 L47.5801923,12.0556977 L42.6663115,25.2392444 C42.6516432,25.2972578 42.59297,25.3407678 42.5342968,25.3407678 C42.4609553,25.3407678 42.4022821,25.3117611 42.3729455,25.2537477 L39.0872461,15.5074954 C39.0725778,15.4639854 39.0872461,15.405972 39.1165827,15.3624619 C39.1459193,15.3334552 39.1752559,15.3044485 39.2192608,15.3044485 L40.5980811,15.3044485 C41.0968033,15.3044485 41.5075158,14.912858 41.5221841,14.4197441 L41.5221841,12.5633151 C41.5221841,11.8091408 40.9061154,11.2 40.1433638,11.2 L31.7530957,11.2 C31.4597296,11.2 31.1810319,11.3450335 31.0050123,11.5770871 C30.843661,11.7946374 30.7849878,12.0847044 30.8729976,12.3457648 C30.990344,12.6793419 31.137027,13.0854357 31.2690417,13.5060329 C31.4010564,13.9266301 31.5477395,14.3182206 31.6797542,14.6808044 C31.7971006,15.0433882 32.1344715,15.2899452 32.5305156,15.3044485 L33.9386725,15.3044485 C34.012014,15.3044485 34.0853555,15.3479586 34.1000238,15.4204753 L40.6274177,34.3763559 C40.7447641,34.7389397 41.082135,35 41.4781792,35 L43.5024047,35 C43.8837805,35 44.2211514,34.7679464 44.3531661,34.4198659 C46.1426989,29.2856795 49.5750813,19.5104205 49.707096,19.1768434 C49.7217643,19.1043266 49.7951058,19.0463132 49.8684473,19.0463132 C49.9417888,19.0463132 50.0151303,19.0898233 50.0297986,19.16234 C50.1618133,19.5104205 53.5941957,29.2856795 55.3837284,34.4053626 C55.5157431,34.753443 55.8531141,34.9854966 56.2344899,35 L58.2587154,35 C58.6547595,35 58.9921305,34.7389397 59.1094769,34.3763559 L65.6222025,15.4204753 C65.6808757,15.3044485 65.7542172,15.3044485 65.7835538,15.3044485 L67.1917107,15.3044485 C67.5730865,15.3044485 67.9104574,15.0578915 68.0424721,14.6953077 C68.1744868,14.3327239 68.3065015,13.9121268 68.4531845,13.5205363 C68.5998676,13.1289458 68.7465506,12.6938452 68.863897,12.3602681 C68.9519068,12.0992078 68.8932336,11.8091408 68.7318823,11.5915905 C68.5411944,11.3450335 68.2771649,11.2 67.9691306,11.2 L67.9691306,11.2 Z M166.188074,31.1711152 L164.66257,31.1711152 C164.427877,31.1711152 164.23719,30.9825716 164.23719,30.7360146 L164.23719,12.0556977 C164.23719,11.7221207 163.958492,11.446557 163.606453,11.4610603 L159.147289,11.4610603 C158.956601,11.4610603 158.780582,11.5480804 158.663235,11.693114 L156.815029,13.9701402 C156.595005,14.2312005 156.653678,14.622791 156.917707,14.8403413 C157.020385,14.9273614 157.1524,14.9708714 157.269747,14.9708714 L157.84181,14.9708714 C158.076503,14.9853748 158.267191,15.1739183 158.281859,15.405972 L158.281859,30.7070079 C158.281859,30.8230347 158.237854,30.9535649 158.164513,31.0550884 C157.680459,31.6787325 156.609673,32.9985375 156.081614,33.6511883 C155.846921,33.9122486 155.876258,34.3038391 156.140287,34.5213894 C156.257634,34.6229129 156.389649,34.6664229 156.536332,34.6809263 L164.310531,34.6809263 C164.471882,34.6954296 164.633234,34.6374162 164.75058,34.506886 L166.569449,32.2588665 C166.99483,31.7657526 166.701464,31.1711152 166.188074,31.1711152 L166.188074,31.1711152 Z" id="path4902" fill="#FFFFFF"></path>
                <ellipse id="circle4904" fill="#FFFFFF" cx="162.569343" cy="4.2" rx="2.80291971" ry="2.8"></ellipse>
                <path d="M190.569343,13.0330935 C190.569343,12.8115108 190.394161,12.6 189.970803,12.6 L189.19708,12.6 L189.19708,14 L189.489051,14 L189.489051,13.4863309 L189.751825,13.4863309 L190.262774,14 L190.59854,14 L190.058394,13.4661871 C190.437956,13.4460432 190.569343,13.2345324 190.569343,13.0330935 L190.569343,13.0330935 Z M189.489051,13.2848921 L189.489051,12.771223 L190,12.771223 C190.189781,12.781295 190.321168,12.8820144 190.321168,13.0129496 L190.321168,13.0330935 C190.335766,13.1640288 190.20438,13.2748201 190.029197,13.2848921 L189.489051,13.2848921 Z" id="path4906" fill="#FFFFFF"></path>
                <path d="M190.23185,11.0404901 C189.259367,11.0404901 188.4637,11.8354054 188.4637,12.8069685 C188.4637,13.7785316 189.259367,14.5734469 190.23185,14.5734469 C191.204332,14.5734469 192,13.7785316 192,12.8069685 C192,11.8354054 191.219067,11.0404901 190.23185,11.0404901 Z M190.23185,14.3084751 C189.406713,14.3084751 188.728922,13.6460457 188.728922,12.8216891 L188.728922,12.8069685 C188.714188,11.9973326 189.362509,11.3201825 190.172912,11.3054618 L190.23185,11.3054618 C191.056987,11.3054618 191.734777,11.9826119 191.734777,12.8069685 C191.734777,13.6313251 191.071721,14.3084751 190.23185,14.3084751 Z M89.7567224,30.5600765 C88.460079,30.6189592 87.8117573,30.0154124 87.8117573,28.5286264 L87.8117573,17.8855939 C87.8117573,13.2338674 83.9070926,10.2750161 79.501452,10.2750161 C72.6646051,10.2750161 70.2039296,13.5135599 69.9239725,17.1348406 C69.9092379,17.4881363 70.1744604,17.7825494 70.5133558,17.79727 L73.9170447,17.79727 C74.2412056,17.7825494 74.5064281,17.5322982 74.5211627,17.2231645 C74.6979777,15.3389209 75.9651519,13.9551795 78.086932,13.9551795 C80.4297308,13.9551795 81.8442508,15.1475524 81.8442508,17.8267113 L81.8442508,20.1378539 L80.6212804,20.1378539 C76.421924,20.1378539 73.5339455,20.6825181 71.5889805,21.9043323 C69.6440154,23.1261466 68.6715328,25.3784065 68.6715328,28.0134035 C68.6715328,29.9565297 69.3345891,31.5463603 70.6754363,32.8123365 C72.0162834,34.0783127 73.5781493,34.6376975 75.6262564,34.6376975 C76.8492269,34.6376975 78.0574628,34.3580051 79.1625566,33.8280616 C80.2529158,33.34228 81.2548675,32.6945713 82.1389425,31.9143767 C82.3157575,31.7524495 82.5957146,31.7524495 82.757795,31.9290973 C82.7872642,31.9585386 82.8167334,31.9879799 82.831468,32.0321419 C83.7892159,33.7102964 84.8353714,34.2549606 86.8245402,34.2549606 C88.6221594,34.2549606 89.4914999,32.5768061 90.2724328,31.561081 C90.5671245,31.1636233 90.2429637,30.5306352 89.7567224,30.5600765 L89.7567224,30.5600765 Z M81.87372,28.8524807 L81.8442508,28.8524807 C81.8442508,28.9996873 81.6084975,29.2057764 81.52009,29.2941003 C80.9749104,29.7504406 80.3707925,30.1478982 79.7224708,30.457032 C79.1330874,30.7072831 78.4995003,30.8250483 77.8659132,30.8103276 C76.9376344,30.8103276 76.0093556,30.457032 75.4052377,29.7946026 C74.7863852,29.1174525 74.4622243,28.2194926 74.4769589,27.3068121 C74.4769589,25.9230707 74.9926693,24.9956695 76.0388248,24.3037988 C77.0849802,23.6119281 78.794192,23.2880737 80.8422991,23.2880737 L81.8589854,23.2880737 L81.87372,28.8524807 Z M153.807959,30.5600765 C152.511315,30.6189592 151.862993,30.0154124 151.862993,28.5286264 L151.862993,17.8855939 C151.862993,13.2338674 147.958329,10.2750161 143.552688,10.2750161 C136.715841,10.2750161 134.255166,13.5135599 133.975209,17.1348406 C133.960474,17.4881363 134.225697,17.7825494 134.564592,17.79727 L137.968281,17.79727 C138.292442,17.7825494 138.557664,17.5322982 138.572399,17.2231645 C138.749214,15.3389209 140.016388,13.9551795 142.138168,13.9551795 C144.480967,13.9551795 145.895487,15.1475524 145.895487,17.8267113 L145.895487,20.1378539 L144.687251,20.1378539 C140.487895,20.1378539 137.585182,20.6825181 135.654951,21.9043323 C133.709986,23.1261466 132.722769,25.3784065 132.722769,28.0134035 C132.722769,29.9565297 133.385825,31.5463603 134.726672,32.8123365 C136.06752,34.0783127 137.629385,34.6376975 139.677493,34.6376975 C140.900463,34.6376975 142.108699,34.3580051 143.213793,33.8280616 C144.304152,33.34228 145.306104,32.6945713 146.190179,31.9143767 C146.366994,31.7524495 146.646951,31.7524495 146.809031,31.9290973 C146.8385,31.9585386 146.86797,31.9879799 146.882704,32.0321419 C147.840452,33.7102964 148.886608,34.2549606 150.875776,34.2549606 C152.673396,34.2549606 153.542736,32.5768061 154.323669,31.561081 C154.618361,31.1636233 154.2942,30.5306352 153.807959,30.5600765 L153.807959,30.5600765 Z M145.939691,28.8524807 L145.910222,28.8524807 C145.910222,28.9996873 145.674468,29.2057764 145.586061,29.2941003 C145.040881,29.7504406 144.436763,30.1478982 143.788442,30.457032 C143.199058,30.7072831 142.565471,30.8250483 141.931884,30.8103276 C141.003605,30.8103276 140.075326,30.457032 139.471208,29.7946026 C138.852356,29.1174525 138.528195,28.2194926 138.54293,27.3068121 C138.54293,25.9230707 139.05864,24.9956695 140.104796,24.3037988 C141.150951,23.6119281 142.860163,23.2880737 144.90827,23.2880737 L145.924956,23.2880737 L145.924956,28.8524807 L145.939691,28.8524807 Z M185.560987,10.3780607 C185.251561,10.2161335 184.470628,10.1425302 183.792837,10.1425302 C182.702478,10.1425302 181.833137,10.2897368 181.081673,10.6135911 L181.022735,10.6430324 C180.742778,10.7755183 180.462821,10.9227249 180.212333,11.1140933 C179.254585,11.7029195 178.414714,12.4389522 177.677984,13.2927501 C177.677984,13.2927501 177.353824,13.5430012 177.294885,13.1308229 L177.294885,10.9963281 C177.294885,10.6577531 177.014928,10.3780607 176.676033,10.3780607 L172.196719,10.3780607 C172.019904,10.3780607 171.843089,10.4516639 171.739947,10.5988705 C171.739947,10.5988705 170.325427,12.3506282 169.868655,12.954175 C169.588698,13.3074707 169.765513,13.9699001 170.354896,13.9699001 L170.91481,13.9699001 C171.150564,13.9699001 171.356848,14.1759893 171.356848,14.4115197 L171.356848,30.0154124 C171.356848,30.1331776 171.327379,30.2656635 171.253706,30.368708 C170.811668,30.9133722 169.69184,32.326555 169.14666,33.0184257 C168.940376,33.2981181 168.98458,33.6808551 169.264537,33.9016649 C169.367679,33.9899888 169.50029,34.0341507 169.632902,34.0341507 L179.313523,34.0341507 C179.652419,34.0341507 179.932376,33.7544583 179.932376,33.4158833 L179.932376,31.0752994 C179.932376,30.7367244 179.652419,30.457032 179.313523,30.457032 L177.781127,30.457032 C177.530639,30.457032 177.339089,30.2656635 177.339089,30.0154124 L177.339089,20.9327692 C177.515904,16.6196177 180.094456,15.2947589 181.332161,14.9120219 L181.508976,14.8531393 L181.55318,14.8384187 C181.892075,14.7500947 182.230971,14.7059328 182.584601,14.7059328 C184.058059,14.7059328 184.603239,14.9267426 185.413641,15.1328317 C185.752536,15.2211557 186.032494,14.8531393 186.032494,14.5145643 L186.032494,10.9816075 C186.003024,10.701915 185.782006,10.4811052 185.560987,10.3780607 L185.560987,10.3780607 Z M132.914319,10.4516639 L125.900657,10.4516639 C125.664903,10.4516639 125.458619,10.2455748 125.458619,10.0100443 L125.458619,6.55069078 C125.458619,4.87253629 126.32796,3.1943818 128.125579,3.1943818 C130.158951,3.1943818 130.468378,4.9019776 130.556785,6.1973951 C130.57152,6.52124947 130.836742,6.78622124 131.160903,6.80094189 L134.063616,6.80094189 C134.387777,6.78622124 134.653,6.52124947 134.638265,6.18267444 C134.579327,1.85480233 131.823959,0 127.403584,0 C124.707155,0 122.939005,0.839077246 121.612893,2.45834912 C120.28678,4.077621 119.608989,5.88826138 119.608989,9.12680513 L119.608989,9.99532368 C119.608989,10.2308541 119.41744,10.4222226 119.181686,10.4222226 L107.20247,10.4516639 C106.863574,10.4369433 106.568883,10.701915 106.568883,11.0552107 L106.568883,13.4105153 C106.568883,13.763811 106.863574,14.0435034 107.20247,14.0435034 L108.484379,14.0435034 C108.734866,14.0435034 108.926416,14.2495925 108.926416,14.485123 C108.926416,14.5440056 108.911681,14.6028882 108.896947,14.6470502 C108.896947,14.6470502 105.5964,22.3165106 104.270288,25.3784065 C104.167145,25.5992163 103.916658,25.7022609 103.695639,25.613937 C103.592497,25.569775 103.518824,25.4814511 103.459885,25.3784065 C102.104304,22.2870693 98.7742877,14.6470502 98.7742877,14.6470502 C98.6858802,14.4262404 98.7890223,14.1612686 99.0100411,14.0729447 C99.0542448,14.058224 99.1131832,14.0435034 99.1721215,14.0435034 L100.070931,14.0435034 C100.424561,14.0435034 100.704518,13.763811 100.704518,13.4105153 L100.704518,11.0699314 C100.704518,10.7313564 100.424561,10.4516639 100.070931,10.4663846 L89.2262774,10.4663846 C88.8726474,10.4663846 88.5926903,10.7607977 88.6074248,11.1140933 C88.6074248,11.2171379 88.636894,11.3054618 88.6810978,11.3937858 C89.0052586,11.9678912 89.7272532,13.336912 89.9335374,13.7343697 C90.0366795,13.9257382 90.2429637,14.0435034 90.4492478,14.058224 L92.5415587,14.058224 C92.7183738,14.058224 92.8804542,14.1612686 92.9541271,14.3231958 C92.9541271,14.3231958 100.660314,31.6052429 100.940272,32.2087897 C101.234963,32.9742637 101.234963,33.8280616 100.925537,34.6082562 C100.571907,36.021439 98.199639,38.5533914 96.888261,38.0970511 C95.9894514,37.7879174 95.8715747,36.1539248 94.7959501,35.9478357 C94.5896659,35.9183944 94.3981163,35.933115 94.2065667,36.021439 C94.0150171,36.0950422 92.2616017,38.3473022 91.8785025,38.7447599 C91.6869529,38.995011 91.6869529,39.333586 91.8785025,39.5838371 C92.8362504,40.5701209 94.4423201,41.8949797 96.7703843,41.9833036 C99.6288936,42.1010688 102.443199,41.7183318 105.05122,36.7721923 C105.05122,36.7721923 113.346791,16.5165732 114.334008,14.3379164 C114.422416,14.1907099 114.569762,14.102386 114.746577,14.102386 L119.122748,14.102386 C119.358501,14.102386 119.564786,14.2937545 119.564786,14.5292849 L119.564786,30.0890156 C119.564786,30.2215015 119.520582,30.3392667 119.446909,30.4423113 C118.931198,31.1047407 117.885043,32.4148789 117.354598,33.0773083 C117.133579,33.34228 117.177783,33.7397377 117.443006,33.9458268 C117.560882,34.0341507 117.693493,34.0930334 117.840839,34.0783127 L127.624603,34.0783127 C127.978233,34.0783127 128.25819,33.7986203 128.25819,33.4453246 L128.25819,31.134182 C128.25819,30.7808863 127.978233,30.5011939 127.624603,30.5011939 L125.94486,30.5011939 C125.709107,30.5011939 125.517557,30.3098254 125.517557,30.0595743 L125.517557,14.4704023 C125.517557,14.2348719 125.709107,14.0435034 125.94486,14.0435034 L131.116699,14.0435034 C131.308249,14.0435034 131.485064,13.9551795 131.602941,13.8079729 C132.044978,13.2338674 132.929053,12.0709358 133.40056,11.467389 C133.606844,11.1876966 133.56264,10.8049596 133.282683,10.5841498 C133.179541,10.5105466 133.04693,10.4516639 132.914319,10.4516639 L132.914319,10.4516639 Z" id="path4908" fill="#FFFFFF"></path>
                <path d="M26.6040928,17.3049824 L24.830157,10.6552919 C24.7684549,10.4243998 24.5987741,10.255079 24.3673912,10.1935078 L17.703563,8.42333554 C17.4876056,8.36176433 17.2407971,8.42333554 17.0865419,8.59265636 L12.6131387,13.056569 L21.9764343,22.4 L26.4498375,17.9360873 C26.6040928,17.7667665 26.6657949,17.5204817 26.6040928,17.3049824 L26.6040928,17.3049824 Z" id="path4910" fill="#FFFFFF"></path>
                <path d="M0.0148675557,27.4950176 L1.78796124,34.1447081 C1.84963406,34.3756002 2.01923433,34.544921 2.25050742,34.6064922 L8.92659058,36.3766645 C9.14244547,36.4382357 9.38913676,36.3766645 9.54331882,36.2073436 L14.0145985,31.743431 L4.67116575,22.4 L0.199886027,26.8639127 C0.0302857616,27.0332335 -0.0313870621,27.2641255 0.0148675557,27.4950176 L0.0148675557,27.4950176 Z" id="path4912" fill="#FFFFFF"></path>
                <path d="M8.92408004,8.42336122 L2.26012856,10.1954819 C2.02874135,10.2571209 1.8590574,10.4266281 1.79735415,10.6577743 L0.0233855811,17.3147841 C-0.0383176734,17.5305206 0.0233855811,17.7770765 0.193069531,17.9311739 L4.66655548,22.4 L14.0145985,13.0616945 L9.54111259,8.59286842 C9.38685445,8.42336122 9.15546725,8.36172224 8.92408004,8.42336122 L8.92408004,8.42336122 Z" id="path4914" fill="#FFFFFF"></path>
                <path d="M26.39073,26.8128773 L21.9732512,22.4 L12.6131387,31.7503624 L17.0306175,36.1632396 C17.231412,36.363825 17.5248809,36.4409732 17.802904,36.3792546 L24.3055564,34.6511348 C24.5835796,34.5739866 24.7998198,34.3579717 24.8770484,34.0802381 L26.6069702,27.5843593 C26.6687531,27.3066258 26.5915245,27.0134626 26.39073,26.8128773 L26.39073,26.8128773 Z" id="path4916" fill="#FFFFFF"></path>
                <polygon id="path4918" fill="#FFFFFF" points="13.3063587 14 4.20437956 23.1 13.3063587 32.2 22.4233577 23.1"></polygon>
                <path d="M26.6040928,17.3049824 L24.830157,10.6552919 C24.7684549,10.4243998 24.5987741,10.255079 24.3673912,10.1935078 L17.703563,8.42333554 C17.4876056,8.36176433 17.2407971,8.42333554 17.0865419,8.59265636 L12.6131387,13.056569 L21.9764343,22.4 L26.4498375,17.9360873 C26.6040928,17.7667665 26.6657949,17.5204817 26.6040928,17.3049824 L26.6040928,17.3049824 Z" id="path4920" fill="#FFFFFF"></path>
                <path d="M0.0148675557,27.4950176 L1.78796124,34.1447081 C1.84963406,34.3756002 2.01923433,34.544921 2.25050742,34.6064922 L8.92659058,36.3766645 C9.14244547,36.4382357 9.38913676,36.3766645 9.54331882,36.2073436 L14.0145985,31.743431 L4.67116575,22.4 L0.199886027,26.8639127 C0.0302857616,27.0332335 -0.0313870621,27.2641255 0.0148675557,27.4950176 L0.0148675557,27.4950176 Z" id="path4922" fill="#FFFFFF"></path>
                <path d="M8.92408004,8.42336122 L2.26012856,10.1954819 C2.02874135,10.2571209 1.8590574,10.4266281 1.79735415,10.6577743 L0.0233855811,17.3147841 C-0.0383176734,17.5305206 0.0233855811,17.7770765 0.193069531,17.9311739 L4.66655548,22.4 L14.0145985,13.0616945 L9.54111259,8.59286842 C9.38685445,8.42336122 9.15546725,8.36172224 8.92408004,8.42336122 L8.92408004,8.42336122 Z" id="path4924" fill="#FFFFFF"></path>
                <path d="M26.39073,26.8128773 L21.9732512,22.4 L12.6131387,31.7503624 L17.0306175,36.1632396 C17.231412,36.363825 17.5248809,36.4409732 17.802904,36.3792546 L24.3055564,34.6511348 C24.5835796,34.5739866 24.7998198,34.3579717 24.8770484,34.0802381 L26.6069702,27.5843593 C26.6687531,27.3066258 26.5915245,27.0134626 26.39073,26.8128773 L26.39073,26.8128773 Z" id="path4926" fill="#FFFFFF"></path>
                <polygon id="path4928" fill="#7B18A0" points="13.3063587 14 4.20437956 23.1 13.3063587 32.2 22.4233577 23.1"></polygon>
            </g>
        </g>
    </g>
</svg>